<?xml version="1.0" encoding="UTF-8"?>
<svg version="1.1" xmlns="http://www.w3.org/2000/svg" width="512" height="512">
<path d="M0 0 C1.40298088 -0.01475876 1.40298088 -0.01475876 2.83430481 -0.02981567 C23.20855341 -0.19992869 43.01996211 -0.18546765 63.0078125 4.23828125 C64.09932617 4.47434082 65.19083984 4.71040039 66.31542969 4.95361328 C89.27479166 10.06264777 111.295211 18.08534198 132.0078125 29.23828125 C132.90113281 29.69074219 133.79445313 30.14320312 134.71484375 30.609375 C151.18896384 39.13745252 166.0530843 50.09650805 180.0078125 62.23828125 C180.93851562 63.03878906 181.86921875 63.83929688 182.828125 64.6640625 C193.46580309 74.01906236 203.31628495 84.04559469 212.0078125 95.23828125 C212.80703125 96.24375 213.60625 97.24921875 214.4296875 98.28515625 C243.23218641 134.75632752 260.33187387 177.48000346 266.8828125 223.36328125 C267.01534424 224.28189941 267.14787598 225.20051758 267.28442383 226.14697266 C267.39681396 227.00468262 267.5092041 227.86239258 267.625 228.74609375 C267.72409668 229.4952002 267.82319336 230.24430664 267.92529297 231.01611328 C268.01981984 233.56162671 267.53913147 235.75488747 267.0078125 238.23828125 C266.00969292 238.24374969 266.00969292 238.24374969 264.9914093 238.24932861 C258.06431175 238.29114602 251.13787722 238.3604869 244.21118164 238.44580078 C241.62628817 238.47402262 239.0413082 238.49523104 236.45629883 238.50927734 C232.73994627 238.53068902 229.02463503 238.57733361 225.30859375 238.62890625 C224.15321609 238.63013489 222.99783844 238.63136353 221.80744934 238.63262939 C215.57677496 238.70375483 215.57677496 238.70375483 209.90673828 241.00708008 C208.09847768 243.13175141 206.64864779 245.09421867 205.32421875 247.546875 C204.87111328 248.37767578 204.41800781 249.20847656 203.95117188 250.06445312 C203.49548828 250.92619141 203.03980469 251.78792969 202.5703125 252.67578125 C202.11849609 253.50271484 201.66667969 254.32964844 201.20117188 255.18164062 C197.47583904 262.08803782 194.31063822 269.08215886 191.0078125 276.23828125 C229.1228125 276.73328125 229.1228125 276.73328125 268.0078125 277.23828125 C262.4230217 327.50139844 246.33753113 373.30112271 215.0078125 413.23828125 C213.94240234 414.62466797 213.94240234 414.62466797 212.85546875 416.0390625 C192.36584248 442.31103729 166.76243083 463.5928939 138.0078125 480.23828125 C137.22857422 480.69187012 136.44933594 481.14545898 135.64648438 481.61279297 C106.91821881 498.11246734 74.71401423 507.0754238 42.0078125 511.23828125 C41.33670441 511.32416504 40.66559631 511.41004883 39.97415161 511.49853516 C34.72084593 512.13212534 29.54694306 512.41037047 24.2578125 512.44140625 C23.45029037 512.44842056 22.64276825 512.45543488 21.81077576 512.46266174 C19.20973069 512.48009625 16.60891392 512.4865171 14.0078125 512.48828125 C12.66990158 512.48929337 12.66990158 512.48929337 11.30496216 512.49032593 C-3.31273695 512.47279459 -17.5679996 511.77893418 -31.9921875 509.23828125 C-33.36938965 509.0047998 -33.36938965 509.0047998 -34.77441406 508.76660156 C-61.23106062 504.1239466 -86.28240694 494.70070925 -109.9921875 482.23828125 C-111.06557373 481.67778076 -111.06557373 481.67778076 -112.16064453 481.10595703 C-125.65955889 473.96871782 -138.29437435 465.02662569 -149.9921875 455.23828125 C-150.96027344 454.45453125 -151.92835938 453.67078125 -152.92578125 452.86328125 C-165.84574647 442.30425363 -177.86281346 430.51499651 -187.9921875 417.23828125 C-188.90851447 416.07395133 -189.82520518 414.90990761 -190.7421875 413.74609375 C-216.62980149 380.49069653 -232.69815162 342.85958804 -240.8046875 301.67578125 C-241.01182373 300.63010986 -241.21895996 299.58443848 -241.43237305 298.50708008 C-242.82239787 291.1047439 -243.54916178 283.75446797 -243.9921875 276.23828125 C-243.43223587 276.27460663 -242.87228424 276.31093201 -242.29536438 276.34835815 C-217.33434571 278.96798753 -217.33434571 278.96798753 -193.71582031 273.43457031 C-189.03476216 268.68027527 -187.11642687 262.83233396 -185.17382812 256.56103516 C-182.99470415 250.43337454 -179.47721892 245.00603273 -176.1796875 239.42578125 C-174.97739786 237.29892978 -173.78264144 235.16779104 -172.59765625 233.03125 C-172.09387451 232.12914795 -171.59009277 231.2270459 -171.07104492 230.29760742 C-169.91484384 228.47811637 -169.91484384 228.47811637 -169.9921875 227.23828125 C-171.35537109 227.83576172 -171.35537109 227.83576172 -172.74609375 228.4453125 C-174.01531415 228.98120556 -175.28486421 229.51631831 -176.5546875 230.05078125 C-177.14443359 230.31181641 -177.73417969 230.57285156 -178.34179688 230.84179688 C-192.64985793 236.78514531 -207.23926657 236.62673615 -222.4296875 236.42578125 C-224.43293256 236.41069486 -226.4361887 236.39701351 -228.43945312 236.38476562 C-233.29064448 236.35210172 -238.14128944 236.30054184 -242.9921875 236.23828125 C-243.92695151 232.47919151 -243.96682805 229.51432955 -243.42578125 225.6875 C-243.27343018 224.60895752 -243.1210791 223.53041504 -242.96411133 222.41918945 C-242.69957153 220.68995239 -242.69957153 220.68995239 -242.4296875 218.92578125 C-242.24623779 217.7246167 -242.06278809 216.52345215 -241.8737793 215.28588867 C-233.75360623 164.42021454 -210.44919223 118.57986256 -175.4921875 80.9609375 C-173.52952239 78.82347253 -171.64783824 76.66460837 -169.8046875 74.42578125 C-166.55781348 70.60107372 -162.81982563 67.4658771 -158.9921875 64.23828125 C-158.06664062 63.42488281 -157.14109375 62.61148438 -156.1875 61.7734375 C-113.74592605 24.67771314 -56.74160292 0.49229382 0 0 Z M-125.9921875 198.23828125 C-126.65734375 198.80546875 -127.3225 199.37265625 -128.0078125 199.95703125 C-135.48160983 206.64091504 -140.02204818 215.66494263 -144.9921875 224.23828125 C-145.56388672 225.21716309 -146.13558594 226.19604492 -146.72460938 227.20458984 C-154.31797719 240.21099086 -161.73632292 253.31131857 -169.0690918 266.46606445 C-172.72607436 273.01471142 -176.46080029 279.50826314 -180.28613281 285.9597168 C-183.75644616 291.81712846 -187.16614924 297.70820331 -190.5546875 303.61328125 C-191.0801416 304.52432617 -191.6055957 305.43537109 -192.14697266 306.37402344 C-192.63343262 307.22383789 -193.11989258 308.07365234 -193.62109375 308.94921875 C-194.05494385 309.70509277 -194.48879395 310.4609668 -194.93579102 311.23974609 C-197.75171647 316.56703192 -198.02500283 322.69808895 -196.34375 328.4609375 C-193.48110215 334.81014362 -189.03019756 338.91989953 -182.6796875 341.67578125 C-176.08899148 342.68114166 -170.38224034 342.6205356 -164.7421875 338.73828125 C-157.50850278 332.43800635 -153.21597866 323.32514076 -148.55999756 315.08068848 C-147.16805744 312.61625052 -145.76842134 310.15621073 -144.36932373 307.6958313 C-143.64504318 306.42201007 -142.92112698 305.14798161 -142.1975708 303.87374878 C-136.79277909 294.35786064 -131.31299606 284.88508794 -125.83007812 275.4140625 C-124.59317228 273.2767523 -123.35751773 271.13871753 -122.12304688 269 C-97.89750439 227.04288244 -97.89750439 227.04288244 -80.1171875 218.92578125 C-68.35350878 216.33777193 -58.09665658 217.02239486 -47.5546875 223.17578125 C-46.02206093 224.17882189 -44.49928106 225.19727033 -42.9921875 226.23828125 C-42.1053125 226.81578125 -41.2184375 227.39328125 -40.3046875 227.98828125 C-33.39153376 234.71459299 -28.77594968 243.79623725 -24.0546875 252.11328125 C-23.09187866 253.79526611 -23.09187866 253.79526611 -22.10961914 255.51123047 C-20.40828547 258.48345207 -18.71263415 261.45887231 -17.01867676 264.43530273 C-15.3324931 267.39700241 -13.64278569 270.35668928 -11.953125 273.31640625 C-11.62063248 273.8988913 -11.28813995 274.48137634 -10.9455719 275.08151245 C-7.29878596 281.46959156 -3.64859056 287.8557004 0.0078125 294.23828125 C0.65766113 295.37297852 1.30750977 296.50767578 1.97705078 297.67675781 C3.85614052 300.95086486 5.74310326 304.22029435 7.6328125 307.48828125 C8.188479 308.45781738 8.74414551 309.42735352 9.31665039 310.42626953 C12.54959064 315.99528569 16.01119226 321.18991884 20.0078125 326.23828125 C20.61625 327.02976562 21.2246875 327.82125 21.8515625 328.63671875 C33.8128869 342.91131815 52.51905132 352.94763827 71.0078125 355.23828125 C93.98132785 357.11452116 114.36864922 350.54293421 132.1171875 335.78125 C151.03812877 319.13593545 160.82182374 293.37152957 172.0078125 271.23828125 C172.55278381 270.16065018 172.55278381 270.16065018 173.10876465 269.06124878 C176.57001073 262.20763761 180.02248885 255.3605101 183.14819336 248.34545898 C189.36574109 234.46060302 197.46451568 224.21275469 210.1953125 215.73828125 C215.19725715 212.33353077 219.75491947 208.183727 221.63671875 202.2578125 C222.92197206 195.26332871 222.15155854 189.81461211 218.68359375 183.54296875 C214.92991904 178.3805723 209.86498119 175.24531788 203.5703125 174.17578125 C190.16180067 173.61806152 180.82871847 182.56906076 171.52929688 191.0090332 C162.7348986 199.15595052 156.15074018 206.80911868 150.79296875 217.59375 C150.45918213 218.26423874 150.12539551 218.93472748 149.78149414 219.62553406 C147.05970464 225.09966391 144.35545856 230.58248304 141.64863682 236.06402397 C138.98516026 241.45640052 136.31458325 246.8452371 133.64034939 252.23228645 C131.89374663 255.75162526 130.1510364 259.27279039 128.41650391 262.7980957 C126.71096691 266.26401813 124.99532423 269.72477207 123.27296448 273.18236351 C122.6284426 274.48050945 121.98738757 275.78038378 121.35020447 277.0821476 C113.94142436 292.20611044 106.29881322 304.2669558 90.0078125 310.23828125 C80.81863478 313.04556569 71.45734588 311.43696913 63.0078125 307.23828125 C52.09863998 300.74655535 46.19641326 290.58116996 40.3828125 279.67578125 C39.68115473 278.37873214 38.97825503 277.08235416 38.27416992 275.78662109 C37.20541886 273.81972719 36.13725371 271.85255209 35.07273865 269.88336182 C31.89281567 264.00289845 28.62350703 258.17537907 25.3203125 252.36328125 C24.2721258 250.51693254 23.22394868 248.6705784 22.17578125 246.82421875 C21.65935059 245.91510742 21.14291992 245.00599609 20.61083984 244.06933594 C18.91858711 241.08070319 17.23750834 238.08598811 15.55859375 235.08984375 C14.98520264 234.06874512 14.41181152 233.04764648 13.82104492 231.99560547 C12.73942445 230.06886636 11.65995911 228.14091487 10.58325195 226.21142578 C-2.32858871 203.25285362 -18.63375414 183.95613128 -44.90771484 176.38720703 C-50.56871194 174.8735639 -56.14678154 173.62797498 -61.9921875 173.23828125 C-62.75917969 173.18671875 -63.52617187 173.13515625 -64.31640625 173.08203125 C-88.27571942 172.22250432 -108.9101917 181.95879532 -125.9921875 198.23828125 Z " fill="#010000" transform="translate(243.9921875,-0.23828125)"/>
</svg>
